<?xml version="1.0" encoding="utf-8"?>
<!-- Generator: Adobe Illustrator 27.1.1, SVG Export Plug-In . SVG Version: 6.00 Build 0)  -->
<svg version="1.1" id="Layer_2" xmlns="http://www.w3.org/2000/svg" xmlns:xlink="http://www.w3.org/1999/xlink" x="0px" y="0px"
	 viewBox="0 0 776 700" style="enable-background:new 0 0 776 700;" xml:space="preserve">
<style type="text/css">
	.st0{fill:url(#SVGID_1_);}
	.st1{fill:#FFFFFF;}
	.st2{fill:#D0D0D0;}
	.st3{fill:#0D3E63;}
	.st4{fill:#041F37;}
	.st5{fill:#0D3D62;}
</style>
<linearGradient id="SVGID_1_" gradientUnits="userSpaceOnUse" x1="369.8742" y1="156.3202" x2="372.2521" y2="493.9877">
	<stop  offset="0" style="stop-color:#124974"/>
	<stop  offset="0.8242" style="stop-color:#041F38"/>
</linearGradient>
<path class="st0" d="M459.7,408.4h-178c-28.2,0-51.3-23.1-51.3-51.3v-178c0-28.2,23.1-51.3,51.3-51.3h178
	c28.2,0,51.3,23.1,51.3,51.3v178C510.9,385.3,487.9,408.4,459.7,408.4z"/>
<path class="st1" d="M371.8,181.5v-29.6c-43.2,0-78.2,35-78.2,78.2c0,71,78.2,148.6,78.2,148.6v-99.9c-26.9,0-48.7-21.8-48.7-48.7
	C323.1,203.3,344.9,181.5,371.8,181.5z"/>
<path class="st2" d="M450,230.2c0,66.7-78.2,148.6-78.2,148.6v-99.9c26.9,0,48.7-21.8,48.7-48.7c0-26.9-21.8-48.7-48.7-48.7v-29.6
	C415,151.9,450,187,450,230.2z"/>
<g>
	<polygon class="st1" points="344,203.1 355.4,203.1 355.4,214.3 344,222.8 	"/>
	<polygon class="st1" points="344.2,252 355.5,252 355.5,237.4 344.2,228.9 	"/>
	<polygon class="st1" points="381.7,203 398.2,203 367,225.1 403.7,252.1 383.7,252 351.8,225.4 	"/>
</g>
<g id="Outline_Lokation">
	<g>
		<path class="st3" d="M55.4,507.5h37.8v16.1H38.1v-72.1h17.4V507.5z"/>
		<path class="st3" d="M188.5,487.6c0,20.6-16.7,37.3-37.2,37.3c-20.6,0-37.2-16.7-37.2-37.3c0-20.4,16.5-37.3,37.2-37.3
			C171.8,450.3,188.5,467.1,188.5,487.6z M130.1,487.6c0,11.8,9.5,21.2,21.3,21.2c11.5,0,21.1-9.4,21.1-21.2
			c0-11.7-9.5-21.1-21.1-21.1C139.6,466.5,130.1,475.9,130.1,487.6z"/>
		<path class="st3" d="M363,512.4h-34.7l-4.8,11.2h-18.4l30.8-72.1h19.4l30.9,72.1h-18.5L363,512.4z M357,498.2l-11.2-26.9
			l-11.4,26.9H357z"/>
		<path class="st3" d="M465.5,467.7H440v55.9h-17.6v-55.9h-25.5v-16.1h68.6V467.7z"/>
		<path class="st3" d="M511.7,523.6h-17.4v-72.1h17.4V523.6z"/>
		<path class="st3" d="M614.3,487.6c0,20.6-16.7,37.3-37.2,37.3c-20.6,0-37.2-16.7-37.2-37.3c0-20.4,16.5-37.3,37.2-37.3
			C597.6,450.3,614.3,467.1,614.3,487.6z M555.9,487.6c0,11.8,9.5,21.2,21.3,21.2c11.5,0,21.1-9.4,21.1-21.2
			c0-11.7-9.5-21.1-21.1-21.1C565.4,466.5,555.9,475.9,555.9,487.6z"/>
		<path class="st3" d="M713,523.6h-17.5l-36.4-44.1v44.1h-17.5v-72.1h17.5l36.4,44v-44H713V523.6z"/>
	</g>
	<g>
		<polygon class="st3" points="209.5,452.2 225.8,452.2 225.8,468.3 209.5,480.6 		"/>
		<polygon class="st3" points="209.8,522.9 226.1,522.9 226.1,501.7 209.8,489.5 		"/>
		<polygon class="st4" points="264,452 287.9,452 242.6,484 295.8,523 266.9,522.9 220.8,484.5 		"/>
	</g>
</g>
<g>
	<path class="st5" d="M227,583.9h-4v-30.7h9.5c2.3,0,4.1,0.3,5.3,1c1.2,0.7,2.1,1.6,2.8,2.9s1,2.7,1,4.1c0,1.2-0.2,2.3-0.7,3.4
		c-0.5,1.1-1.1,2.1-1.9,3c-0.8,0.9-2.1,1.7-3.9,2.4c0.6,0.4,1.1,0.7,1.5,1.1s0.7,0.9,1.2,1.6c0.5,0.7,0.9,1.4,1.2,2.1l4.9,9.1h-4.6
		l-4.2-8.1c-1-1.9-2.4-3.7-4-5.1h-4V583.9z M227,567.6h3.9c1.6,0,2.9-0.3,3.7-0.8c0.9-0.5,1.5-1.2,2-2.2c0.5-1,0.8-2,0.8-3.1
		c0-1-0.2-1.8-0.6-2.6c-0.4-0.8-1-1.4-1.7-1.9c-0.8-0.5-2.1-0.8-3.9-0.8H227V567.6z"/>
	<path class="st5" d="M250.9,583.9v-30.7h17.3v3.4h-13.3v9.7h11.6v3.1h-11.6v11.2h14.4v3.4H250.9z"/>
	<path class="st5" d="M279.1,583.9h-3.7l12.6-30.7h4l11.6,30.7h-4.3l-3.2-8.4h-13.5L279.1,583.9z M283.8,572.4h11.1l-5.4-14.3
		L283.8,572.4z"/>
	<path class="st5" d="M310.5,583.9v-30.7h4v27.3h16.1v3.4H310.5z"/>
	<path class="st5" d="M359.9,583.9v-30.7h17.3v3.4h-13.3v9.7h11.6v3.1h-11.6v11.2h14.4v3.4H359.9z"/>
	<path class="st5" d="M385.9,577h4v0.2c0,1.7,0.6,2.9,1.8,3.6c1.2,0.7,2.8,1,4.8,1c1.7,0,3.2-0.5,4.4-1.5c1.2-1,1.8-2.4,1.8-4
		c0-1.4-0.5-2.5-1.5-3.3c-1-0.8-2.5-1.7-4.6-2.5l-1.6-0.6c-2.2-0.9-3.8-1.8-4.9-2.7c-1.1-0.9-1.9-1.9-2.4-2.9
		c-0.5-1.1-0.8-2.3-0.8-3.6c0-2.3,0.8-4.3,2.5-5.9c1.6-1.6,4.2-2.4,7.7-2.4c3.2,0,5.5,0.6,6.8,1.8s1.9,2.6,1.9,4.1v0.2h-4v-0.2
		c0-0.5-0.2-1-0.6-1.5s-1-0.8-1.8-1.1c-0.8-0.2-1.7-0.3-2.6-0.3c-2,0-3.4,0.5-4.4,1.5c-0.9,1-1.4,2.1-1.4,3.4c0,0.8,0.2,1.6,0.7,2.4
		c0.4,0.7,1.1,1.4,1.8,1.9c0.8,0.5,2.1,1.1,4,2l1.9,0.8c3,1.3,5,2.7,6,4.1c1,1.4,1.5,3,1.5,4.6c0,1.5-0.4,3-1.2,4.5
		c-0.8,1.4-1.9,2.5-3.4,3.3c-1.4,0.7-3.4,1.1-5.8,1.1c-2.3,0-4.2-0.3-5.7-0.8c-1.5-0.5-2.7-1.4-3.5-2.7c-0.8-1.2-1.2-2.6-1.2-4.1
		V577z"/>
	<path class="st5" d="M422.8,583.9v-27.6h-10.4v-3.1H437v3.1h-10.3v27.6H422.8z"/>
	<path class="st5" d="M445.3,583.9h-3.7l12.6-30.7h4l11.6,30.7h-4.3l-3.2-8.4h-13.5L445.3,583.9z M450,572.4h11.1l-5.4-14.3
		L450,572.4z"/>
	<path class="st5" d="M484.9,583.9v-27.6h-10.4v-3.1h24.7v3.1h-10.3v27.6H484.9z"/>
	<path class="st5" d="M506.1,583.9v-30.7h17.3v3.4h-13.3v9.7h11.6v3.1h-11.6v11.2h14.4v3.4H506.1z"/>
</g>
<g>
	<path class="st3" d="M760.1,466.3c0,8.5-6.6,15.1-15.3,15.1c-8.6,0-15.4-6.7-15.4-15.1c0-8.3,6.8-14.9,15.4-14.9
		C753.5,451.4,760.1,458,760.1,466.3z M733.2,466.3c0,6.7,4.9,11.9,11.7,11.9c6.6,0,11.4-5.3,11.4-11.8c0-6.6-4.8-12-11.5-12
		C738.2,454.4,733.2,459.8,733.2,466.3z M742.4,474.2H739v-14.9c1.4-0.3,3.3-0.5,5.7-0.5c2.8,0,4.1,0.5,5.2,1.1
		c0.8,0.6,1.5,1.8,1.5,3.3c0,1.6-1.3,2.9-3.1,3.5v0.2c1.5,0.5,2.3,1.6,2.7,3.6c0.5,2.3,0.7,3.2,1.1,3.7h-3.7
		c-0.5-0.5-0.7-1.9-1.2-3.6c-0.3-1.6-1.2-2.4-3.1-2.4h-1.6V474.2z M742.5,465.7h1.6c1.9,0,3.5-0.6,3.5-2.2c0-1.4-1-2.3-3.2-2.3
		c-0.9,0-1.5,0.1-1.9,0.2V465.7z"/>
</g>
</svg>
